<svg xmlns="http://www.w3.org/2000/svg" viewBox="0 0 393.627 373.162">
  <defs>
    <style>
      .cls-1 {
        fill: #fff;
      }

      .cls-2 {
        fill: #6ffbfd;
      }
    </style>
  </defs>
  <g id="ar34cp.tif_1_" transform="translate(-0.064 0.035)">
    <path id="Path_9" data-name="Path 9" class="cls-1" d="M99.156,36.568C110.881,26.222,136.4-8.953,183.3,2.083c-6.9,5.518-13.794,11.035-13.794,13.794s1.379,6.759,9.656,5.518C317.794.013,375.729,122.782,389.523,173.82c4,14.9,3.449,20.829,4.138,24.83.828,4.69-16-2.759-18.622-8.966,2.759,15.174,6.9,67.591-23.45,89.662,0,0-8.966-128.976-60-144.149-15.174,9.656-70.35,34.485-139.321,27.588,0,4.138,8.277,15.174,34.485,24.83-17.932,4.138-37.244,2.759-91.042-45.521-22.071,24.83-51.038,34.485-37.244,148.977,0,0-2.069,2.759-15.174-15.174C21.219,245.55-25.957,134.093,18.46,89.676c20.691-20.691,30.347-23.45,62.074-27.588C68.119,60.708,48.807,66.225,41.91,48.293c33.106,5.518,38.624,4.138,45.521,4.138-2.759-12.415-8.277-28.968,1.379-37.244C90.19,23.464,90.19,33.119,99.156,36.568Z" transform="translate(0 0)"/>
    <path id="Path_10" data-name="Path 10" class="cls-2" d="M135.041,148.481c-13.656-10.622-27.726-18.76-37.244-44.141-.552-1.379-1.379-2.759-5.518,2.759s-24.83,45.521-12.415,71.73c-5.518,0-13.794-2.759-16.553-12.415s-4.828-11.725-9.656-1.379c-3.724,8-22.071,82.765,55.177,82.765,40,0,45.521-41.383,45.521-55.177S147.456,158.137,135.041,148.481Zm-19.312,89.662c-14.07,7.035-28.968-2.759-26.209-22.071,6.9,4.138,10.346,6.207,12.415,4.138,3.035-3.035-4.828-10.346,2.759-27.588,0,0,2.621,7.173,11.035,12.415C126.765,211.934,132.282,229.866,115.729,238.143Z" transform="translate(18.602 39.133)"/>
    <path id="Path_11" data-name="Path 11" class="cls-2" d="M258.645,160.343c-4.966-16.553-13.794-20.691-14.07-50.211,0-2.207-2.9-3.035-8.966.276s-41.52,31.037-41.107,60c-4.966-2.345-12.415-8-9.932-18.208,4.69-19.174-6.207-6.759-8.277-5.242-7.035,5.242-45.521,63.591,6.345,93.387,38.624,22.071,64.833-11.035,73.8-28.278C262.921,199.933,262.783,174.138,258.645,160.343Zm-52.694,79.592c-15.725,1.1-25.933-13.1-16.415-30.071,3.449,3.587,5.656,8.139,10.07,8.414s-.414-10.484,12.553-24.692c0,0-.138,7.587,5.794,15.587C225.815,219.52,220.021,238.97,205.951,239.936Z" transform="translate(59.149 41.065)"/>
    <path id="Path_12" data-name="Path 12" class="cls-1" d="M110.4,273.878s42.762,2.759,67.591-2.759,30.209-8.139,35.865-13.794c1.379-1.379,0-6.9,2.759-9.656,2.207-2.207,5.518-4.138,9.656,0s4.138,9.38,0,12.415c-2.207,1.655-5.518,0-5.518,0s-15.174,27.588-108.974,17.932Z" transform="translate(41.863 93.061)"/>
  </g>
</svg>
